#!OML:ASF H:\Terrain\Patient Classification 1\Walking\liu\liu.ASF
:FULLY-SPECIFIED
:DEGREES
144
root -2.81418 16.438 -36.1768 3.53099 0.012871 -2.71162
lowerback 7.53151 2.01236 -1.70941
upperback -3.76628 2.60791 1.23887
thorax -8.34653 1.40704 1.88579
lowerneck -2.8608 -3.78905 -6.57641
upperneck 5.96964 -5.11253 6.0341
head 2.81431 -2.52465 2.97977
rclavicle -1.58251e-014 -5.56597e-015
rhumerus -32.667 2.17166 -80.088
rradius 30.67
rwrist 2.97727
rhand -20.2837 -26.5671
rfingers 7.12502
rthumb 6.06596 -56.4603
lclavicle -1.58251e-014 -5.56597e-015
lhumerus -26.9337 -2.09044 88.5145
lradius 24.4814
lwrist -31.4124
lhand -28.5389 30.3768
lfingers 7.12502
lthumb -1.90641 60.348
rfemur -22.7143 -6.27075 14.1282
rtibia 48.3047
rfoot -26.2341 2.07731
rtoes -7.23291
lfemur -22.3498 5.95906 -8.8035
ltibia 46.1734
lfoot -22.4626 0.951737
ltoes -9.2545
145
root -2.81538 16.4355 -36.1775 3.54313 0.0383329 -2.70708
lowerback 7.53548 2.00549 -1.72573
upperback -3.77335 2.59705 1.24074
thorax -8.35687 1.40285 1.89834
lowerneck -2.87147 -3.7866 -6.56801
upperneck 6.00692 -5.11051 6.03478
head 2.82852 -2.52331 2.9785
rclavicle 3.51453e-014 2.03754e-014
rhumerus -32.6655 2.15583 -80.0508
rradius 30.6241
rwrist 3.02963
rhand -20.2229 -26.6676
rfingers 7.12502
rthumb 6.1246 -56.5591
lclavicle 3.51453e-014 2.03754e-014
lhumerus -26.9441 -2.01814 88.4981
lradius 24.4384
lwrist -31.428
lhand -28.4914 30.3222
lfingers 7.12502
lthumb -1.86047 60.2939
rfemur -22.7465 -6.27144 14.1325
rtibia 48.3473
rfoot -26.2453 2.01804
rtoes -7.27416
lfemur -22.3921 5.97733 -8.80022
ltibia 46.2025
lfoot -22.4687 0.900377
ltoes -9.15917
146
root -2.81587 16.434 -36.1768 3.54137 0.060364 -2.70853
lowerback 7.54494 2.00633 -1.71886
upperback -3.77364 2.59867 1.23871
thorax -8.36234 1.40321 1.89179
lowerneck -2.89273 -3.79946 -6.53821
upperneck 6.03093 -5.1278 6.01602
head 2.83997 -2.53141 2.96545
rclavicle -4.72673e-014 -9.93923e-017
rhumerus -32.6577 2.14354 -80.014
rradius 30.5733
rwrist 3.04548
rhand -20.2361 -26.8018
rfingers 7.12502
rthumb 6.11187 -56.6936
lclavicle -4.72673e-014 -9.93923e-017
lhumerus -26.9233 -1.94375 88.4794
lradius 24.366
lwrist -31.4066
lhand -28.4266 30.2931
lfingers 7.12502
lthumb -1.79796 60.2653
rfemur -22.7609 -6.28335 14.1359
rtibia 48.3877
rfoot -26.2579 2.00867
rtoes -7.26916
lfemur -22.4061 5.98859 -8.79453
ltibia 46.2278
lfoot -22.4923 0.858554
ltoes -9.17314
147
root -2.81689 16.4316 -36.1763 3.54783 0.0992154 -2.69274
lowerback 7.53098 1.99685 -1.73779
upperback -3.7615 2.58397 1.2389
thorax -8.34125 1.39686 1.90545
lowerneck -2.94698 -3.79945 -6.53928
upperneck 6.0672 -5.12564 6.01092
head 2.86217 -2.5297 2.96342
rclavicle 6.42416e-014 2.83268e-014
rhumerus -32.6296 2.15399 -79.9813
rradius 30.5206
rwrist 3.06432
rhand -20.2153 -26.9141
rfingers 7.12502
rthumb 6.13197 -56.8054
lclavicle 6.42416e-014 2.83268e-014
lhumerus -26.8939 -1.86042 88.4614
lradius 24.3138
lwrist -31.4715
lhand -28.4436 30.2635
lfingers 7.12502
lthumb -1.81435 60.2356
rfemur -22.7778 -6.31314 14.1204
rtibia 48.432
rfoot -26.2979 2.00404
rtoes -7.19248
lfemur -22.4427 5.98872 -8.80792
ltibia 46.2587
lfoot -22.509 0.852912
ltoes -9.15516
148
root -2.81761 16.4303 -36.176 3.55928 0.127659 -2.68384
lowerback 7.53112 1.99464 -1.75216
upperback -3.78086 2.57967 1.2401
thorax -8.36284 1.39594 1.91514
lowerneck -2.89447 -3.80073 -6.53965
upperneck 6.074 -5.13083 6.01473
head 2.85515 -2.533 2.96527
rclavicle 1.50789e-014 5.76476e-015
rhumerus -32.6611 2.11101 -79.9226
rradius 30.4536
rwrist 3.1329
rhand -20.2377 -26.7553
rfingers 7.12502
rthumb 6.11036 -56.6472
lclavicle 1.50789e-014 5.76476e-015
lhumerus -26.9251 -1.8308 88.469
lradius 24.2619
lwrist -31.5258
lhand -28.4741 30.2628
lfingers 7.12502
lthumb -1.84384 60.2346
rfemur -22.8037 -6.34826 14.1174
rtibia 48.4733
rfoot -26.3268 1.96968
rtoes -7.27289
lfemur -22.4771 5.98661 -8.81411
ltibia 46.2864
lfoot -22.5254 0.804147
ltoes -9.07654
149
root -2.81753 16.4275 -36.1765 3.57025 0.172858 -2.66381
lowerback 7.52859 1.98994 -1.74468
upperback -3.77857 2.57283 1.22264
thorax -8.35725 1.39155 1.8936
lowerneck -2.94458 -3.81087 -6.51365
upperneck 6.12929 -5.14393 5.99784
head 2.8826 -2.53864 2.9535
rclavicle -1.78215e-014 -8.74653e-015
rhumerus -32.6486 2.04127 -79.8808
rradius 30.386
rwrist 3.1939
rhand -20.1594 -26.7728
rfingers 7.12502
rthumb 6.18596 -56.6625
lclavicle -1.78215e-014 -8.74653e-015
lhumerus -26.8995 -1.80585 88.4611
lradius 24.2047
lwrist -31.5758
lhand -28.4128 30.3082
lfingers 7.12502
lthumb -1.78459 60.2805
rfemur -22.8171 -6.37313 14.0934
rtibia 48.5171
rfoot -26.3507 1.92945
rtoes -7.34266
lfemur -22.5208 5.98874 -8.83897
ltibia 46.3178
lfoot -22.5459 0.803858
ltoes -9.15991
150
root -2.8187 16.4254 -36.1749 3.57866 0.198556 -2.62094
lowerback 7.5114 1.98574 -1.78645
upperback -3.78267 2.5622 1.21429
thorax -8.35273 1.38845 1.91029
lowerneck -2.89734 -3.81809 -6.558
upperneck 6.10808 -5.15599 6.03992
head 2.87088 -2.54524 2.97647
rclavicle 2.23493e-014 1.66979e-014
rhumerus -32.6446 2.01719 -79.8386
rradius 30.3257
rwrist 3.20888
rhand -20.1426 -26.7676
rfingers 7.12502
rthumb 6.20211 -56.6568
lclavicle 2.23493e-014 1.66979e-014
lhumerus -26.9028 -1.75987 88.4609
lradius 24.1524
lwrist -31.6532
lhand -28.4952 30.3063
lfingers 7.12502
lthumb -1.86416 60.2779
rfemur -22.8373 -6.39897 14.0486
rtibia 48.5621
rfoot -26.3752 1.90559
rtoes -7.42448
lfemur -22.5436 5.99484 -8.88395
ltibia 46.3437
lfoot -22.5779 0.787352
ltoes -9.14053
151
root -2.81986 16.4248 -36.1743 3.59029 0.209959 -2.62967
lowerback 7.49727 1.98455 -1.7833
upperback -3.78294 2.56152 1.21923
thorax -8.34483 1.38808 1.91428
lowerneck -2.94683 -3.82191 -6.5467
upperneck 6.17494 -5.15943 6.01081
head 2.90154 -2.5468 2.96369
rclavicle 3.11867e-014 1.07344e-014
rhumerus -32.637 2.00252 -79.806
rradius 30.2901
rwrist 3.20452
rhand -20.1629 -26.7659
rfingers 7.12502
rthumb 6.18251 -56.6557
lclavicle 3.11867e-014 1.07344e-014
lhumerus -26.8819 -1.69484 88.4535
lradius 24.1162
lwrist -31.6236
lhand -28.3766 30.4034
lfingers 7.12502
lthumb -1.7496 60.376
rfemur -22.8677 -6.40555 14.0654
rtibia 48.6008
rfoot -26.3901 1.88079
rtoes -7.45554
lfemur -22.5778 6.03673 -8.86982
ltibia 46.3752
lfoot -22.5879 0.757798
ltoes -9.20669
152
root -2.82095 16.4225 -36.1729 3.60555 0.239345 -2.59712
lowerback 7.47608 1.97824 -1.81632
upperback -3.768 2.5495 1.21761
thorax -8.3172 1.38367 1.93381
lowerneck -3.04383 -3.82364 -6.54666
upperneck 6.20958 -5.15628 5.99291
head 2.93065 -2.54429 2.95652
rclavicle 8.87698e-015 -3.77691e-015
rhumerus -32.576 1.95206 -79.7508
rradius 30.2001
rwrist 3.23489
rhand -20.1851 -26.6221
rfingers 7.12502
rthumb 6.16108 -56.5125
lclavicle 8.87698e-015 -3.77691e-015
lhumerus -26.8346 -1.59813 88.4434
lradius 24.0704
lwrist -31.721
lhand -28.3796 30.3261
lfingers 7.12502
lthumb -1.75257 60.2987
rfemur -22.8907 -6.43123 14.0352
rtibia 48.6445
rfoot -26.4133 1.81374
rtoes -7.64605
lfemur -22.6167 6.04951 -8.90271
ltibia 46.4043
lfoot -22.6101 0.734088
ltoes -9.25758
153
root -2.82241 16.4205 -36.1724 3.61684 0.263921 -2.60565
lowerback 7.49104 1.98601 -1.8034
upperback -3.79592 2.56071 1.20963
thorax -8.3557 1.38871 1.91552
lowerneck -3.01287 -3.83547 -6.56194
upperneck 6.2704 -5.17698 6.01593
head 2.94862 -2.55484 2.96709
rclavicle 1.75645e-015 3.77691e-015
rhumerus -32.6156 1.86263 -79.7076
rradius 30.1559
rwrist 3.2675
rhand -20.2469 -26.6695
rfingers 7.12502
rthumb 6.10144 -56.5617
lclavicle 1.75645e-015 3.77691e-015
lhumerus -26.8649 -1.5663 88.425
lradius 24.0479
lwrist -31.7471
lhand -28.3573 30.1557
lfingers 7.12502
lthumb -1.73099 60.1284
rfemur -22.9132 -6.44627 14.0523
rtibia 48.6792
rfoot -26.4363 1.80475
rtoes -7.59031
lfemur -22.6578 6.08512 -8.88552
ltibia 46.4404
lfoot -22.6327 0.663883
ltoes -9.11762
